<?xml version="1.0" encoding="utf-8"?>
<!-- Generator: Adobe Illustrator 16.0.0, SVG Export Plug-In . SVG Version: 6.00 Build 0)  -->
<!DOCTYPE svg PUBLIC "-//W3C//DTD SVG 1.1//EN" "http://www.w3.org/Graphics/SVG/1.1/DTD/svg11.dtd">
<svg version="1.1" id="Layer_1" xmlns="http://www.w3.org/2000/svg" xmlns:xlink="http://www.w3.org/1999/xlink" x="0px" y="0px"
	 width="512px" height="512px" viewBox="0 0 512 512" enable-background="new 0 0 512 512" xml:space="preserve">
<path d="M278.625,233.375c12.5,12.5,12.5,32.781,0,45.25c-12.5,12.5-32.75,12.5-45.25,0c-12.5-12.469-12.5-32.75,0-45.25
	S266.125,220.875,278.625,233.375z M323.875,188.125c-6.25-6.25-16.375-6.25-22.625,0s-6.25,16.375,0,22.625
	C313.344,222.813,320,238.906,320,256s-6.656,33.156-18.75,45.25c-6.25,6.25-6.25,16.375,0,22.625
	c3.125,3.125,7.219,4.688,11.313,4.688s8.188-1.563,11.313-4.688C342,305.75,352,281.656,352,256S342,206.25,323.875,188.125z
	 M369.156,142.844c-6.25-6.25-16.375-6.25-22.625,0s-6.25,16.375,0,22.625c49.906,49.906,49.906,131.125,0,181.031
	c-6.25,6.25-6.25,16.375,0,22.625c3.125,3.125,7.219,4.688,11.313,4.688s8.188-1.563,11.313-4.688
	C431.531,306.75,431.531,205.25,369.156,142.844z M414.406,97.594c-6.25-6.25-16.375-6.25-22.625,0s-6.25,16.375,0,22.625
	c74.844,74.844,74.844,196.688,0,271.563c-6.25,6.25-6.25,16.375,0,22.625c3.125,3.125,7.219,4.688,11.313,4.688
	s8.188-1.563,11.313-4.688C501.75,327.031,501.75,184.938,414.406,97.594z M210.75,188.125c-6.25-6.25-16.375-6.25-22.625,0
	C170,206.25,160,230.344,160,256s10,49.75,28.125,67.875c3.125,3.125,7.219,4.688,11.313,4.688s8.188-1.563,11.313-4.688
	c6.25-6.25,6.25-16.375,0-22.625C198.656,289.156,192,273.094,192,256s6.656-33.188,18.75-45.25
	C217,204.5,217,194.375,210.75,188.125z M165.469,165.469c6.25-6.25,6.25-16.375,0-22.625s-16.375-6.25-22.625,0
	c-62.375,62.406-62.375,163.906,0,226.281c3.125,3.125,7.219,4.688,11.313,4.688s8.188-1.563,11.313-4.688
	c6.25-6.25,6.25-16.375,0-22.625C115.563,296.594,115.563,215.375,165.469,165.469z M120.219,120.219
	c6.25-6.25,6.25-16.375,0-22.625s-16.375-6.25-22.625,0c-87.313,87.344-87.313,229.438,0,316.813
	c3.125,3.125,7.219,4.688,11.313,4.688s8.188-1.563,11.313-4.688c6.25-6.25,6.25-16.375,0-22.625
	C45.375,316.906,45.375,195.063,120.219,120.219z"/>
</svg>
